# xmcd CD database file
#
# Track frame offsets:
#	150
#	12637
#	25312
#	38662
#	51037
#	63787
#	77662
#	92250
#	105562
#	119625
#	134362
#	148837
#	163200
#	178275
#	191925
#	205762
#	219750
#	233025
#	245325
#	259087
#	273600
#	286650
#	301387
#	317062
#
# Disc length: 4434 seconds
#
# Revision: 0
# Processed by: cddbd v1.5.2PL0 Copyright (c) Steve Scherf et al.
# Submitted via: CDex 1.51
#
DISCID=5a115018
DTITLE=Ed Kirkeby - Volume One
DYEAR=1935
DGENRE=Jazz
TTITLE0=Bless Her Little Heart
TTITLE1=Who-oo, You-oo, That's Who
TTITLE2=Cornfed
TTITLE3=Buffalo Rhythm
TTITLE4=Zulu Wail
TTITLE5=For My Baby
TTITLE6=There's Something Spanish In Your Eyes
TTITLE7=Cobble-Stones
TTITLE8=What Do You Say
TTITLE9=Mean To Me
TTITLE10=The One That I Love Loves Me
TTITLE11=My Kinda Love
TTITLE12=Sweet Seventeen
TTITLE13=Jericho
TTITLE14=I've Got A Feeling I'm Falling
TTITLE15=The One In The World
TTITLE16=The Moonlight March
TTITLE17=Sweetness
TTITLE18=I May Be Wrong, But I Think You're Wonderful
TTITLE19=Lucky Me - Lovable You
TTITLE20=Love Ain't Nothing But The Blues
TTITLE21=Amos 'n' Andy
TTITLE22=You've Got That Thing
TTITLE23=You've Got That Thing
EXTD=YEAR: 1935
EXTT0=
EXTT1=
EXTT2=
EXTT3=
EXTT4=
EXTT5=
EXTT6=
EXTT7=
EXTT8=
EXTT9=
EXTT10=
EXTT11=
EXTT12=
EXTT13=
EXTT14=
EXTT15=
EXTT16=
EXTT17=
EXTT18=
EXTT19=
EXTT20=
EXTT21=
EXTT22=
EXTT23=
PLAYORDER=
